<?xml version="1.0" encoding="UTF-8" standalone="no"?>
<!-- Created with Inkscape (http://www.inkscape.org/) -->

<svg
   width="11.039307mm"
   height="11.023926mm"
   viewBox="0 0 11.039307 11.023926"
   version="1.1"
   id="svg1383"
   xml:space="preserve"
   inkscape:export-filename="linkedin.svg"
   inkscape:export-xdpi="200"
   inkscape:export-ydpi="200"
   xmlns:inkscape="http://www.inkscape.org/namespaces/inkscape"
   xmlns:sodipodi="http://sodipodi.sourceforge.net/DTD/sodipodi-0.dtd"
   xmlns:xlink="http://www.w3.org/1999/xlink"
   xmlns="http://www.w3.org/2000/svg"
   xmlns:svg="http://www.w3.org/2000/svg"><sodipodi:namedview
     id="namedview1385"
     pagecolor="#ffffff"
     bordercolor="#000000"
     borderopacity="0.25"
     inkscape:showpageshadow="2"
     inkscape:pageopacity="0.0"
     inkscape:pagecheckerboard="0"
     inkscape:deskcolor="#d1d1d1"
     inkscape:document-units="mm"
     showgrid="false"
     inkscape:zoom="2.0510461"
     inkscape:cx="1006.8033"
     inkscape:cy="595.54974"
     inkscape:window-width="1920"
     inkscape:window-height="1001"
     inkscape:window-x="-9"
     inkscape:window-y="-9"
     inkscape:window-maximized="1"
     inkscape:current-layer="layer1" /><defs
     id="defs1380"><color-profile
       name="Agfa-:-Swop-Standard"
       xlink:href="file:///WINDOWS/system32/spool/drivers/color/RSWOP.icm"
       id="color-profile3614" /></defs><g
     inkscape:label="Calque 1"
     inkscape:groupmode="layer"
     id="layer1"
     transform="translate(-78.772264,-689.18559)"><path
       style="fill:#000000;stroke-width:0.999997"
       d="m 88.318474,699.44358 -0.769597,-0.7697 -0.468023,0.46784 c -0.257413,0.25732 -0.472759,0.46785 -0.478545,0.46785 -0.0058,0 -0.01698,-0.0221 -0.02487,-0.049 -0.0079,-0.027 -0.08008,-0.23922 -0.160407,-0.47164 -0.154204,-0.44616 -0.460395,-1.33666 -0.910701,-2.64863 -0.149561,-0.43574 -0.269226,-0.79496 -0.265921,-0.79827 0.0033,-0.003 0.01466,10e-4 0.02524,0.01 0.01058,0.009 0.02263,0.0155 0.02678,0.015 0.01525,-0.002 -0.02365,-0.0151 1.675253,0.56906 0.377686,0.12987 0.924406,0.31776 1.214934,0.41752 0.290529,0.0998 0.623315,0.21425 0.739526,0.25439 0.116212,0.0401 0.226574,0.0774 0.245251,0.0828 0.01868,0.005 0.03396,0.0146 0.03396,0.0202 0,0.005 -0.210547,0.22085 -0.467882,0.47809 l -0.467881,0.4677 0.77299,0.7731 0.77299,0.7731 -0.04155,0.0434 c -0.11106,0.11593 -0.661399,0.65982 -0.670989,0.66313 -0.006,0.002 -0.357274,-0.34258 -0.780552,-0.76592 z m -2.497816,-3.25009 c 0,-0.003 -0.01528,-0.0182 -0.03396,-0.034 l -0.03396,-0.0288 0.02875,0.034 c 0.02702,0.0319 0.03916,0.0408 0.03916,0.0288 z m -0.120739,-0.12074 c 0,-0.003 -0.01528,-0.0182 -0.03396,-0.0339 l -0.03396,-0.0288 0.02875,0.034 c 0.02702,0.0319 0.03916,0.0408 0.03916,0.0288 z m -0.120739,-0.12074 c 0,-0.003 -0.01528,-0.0182 -0.03396,-0.034 l -0.03396,-0.0288 0.02875,0.034 c 0.02702,0.0319 0.03917,0.0408 0.03917,0.0288 z m -0.120739,-0.12074 c 0,-0.003 -0.01528,-0.0181 -0.03396,-0.034 l -0.03396,-0.0288 0.02875,0.034 c 0.02702,0.0319 0.03916,0.0408 0.03916,0.0288 z m -0.120739,-0.12123 c 0,-0.003 -0.01188,-0.015 -0.02641,-0.0264 -0.02394,-0.0188 -0.02447,-0.0182 -0.0057,0.005 0.01972,0.0251 0.03211,0.0331 0.03211,0.0207 z m -1.539421,4.13098 c -1.144999,-0.0737 -2.212151,-0.49349 -3.078841,-1.21105 -1.072381,-0.88784 -1.751846,-2.13495 -1.90846,-3.50283 -0.02952,-0.25788 -0.02925,-0.28639 0.003,-0.31154 0.02158,-0.0168 0.02196,-0.019 0.0021,-0.0122 -0.01868,0.006 -0.0265,-0.005 -0.03379,-0.049 -0.02421,-0.14647 -0.0027,-0.61781 0.04439,-0.97049 0.16797,-1.25943 0.815875,-2.45465 1.785292,-3.29342 1.170269,-1.01254 2.685523,-1.46259 4.227629,-1.25568 1.103532,0.14807 2.155547,0.6604 2.970049,1.4464 0.179098,0.17284 0.447422,0.47516 0.574289,0.64707 1.002063,1.35782 1.307196,3.06303 0.839417,4.69101 -0.04606,0.16028 -0.187838,0.55331 -0.215765,0.59811 -0.01462,0.0234 -0.33453,-0.0794 -0.33453,-0.10751 0,-0.01 0.02654,-0.0831 0.05899,-0.16258 0.165134,-0.4043 0.279522,-0.88471 0.326147,-1.36975 0.01229,-0.12792 0.02236,-0.24173 0.02236,-0.2529 0,-0.0168 -0.177327,-0.0197 -1.045146,-0.0164 l -1.045146,0.004 -0.0034,0.083 c -0.01638,0.39188 -0.07852,1.09066 -0.09879,1.11094 -0.0032,0.003 -0.08001,-0.0207 -0.17064,-0.0531 -0.147309,-0.0527 -0.164639,-0.0627 -0.163484,-0.0943 7.24e-4,-0.0195 0.01285,-0.14404 0.02697,-0.27685 0.02545,-0.23921 0.05302,-0.75889 0.0409,-0.77098 -0.0034,-0.004 -0.522369,-0.006 -1.153132,-0.006 h -1.146864 l 0.02851,-0.0339 c 0.01568,-0.0187 0.0065,-0.014 -0.0203,0.0104 l -0.04881,0.0443 v 1.04311 1.04311 l 0.441451,0.0201 c 0.242798,0.0111 0.484882,0.0243 0.537965,0.0294 l 0.09651,0.009 0.06054,0.1775 c 0.03329,0.0976 0.05778,0.18023 0.05441,0.18356 -0.0034,0.004 -0.118186,-0.004 -0.255148,-0.0149 -0.136963,-0.0115 -0.403532,-0.0256 -0.592376,-0.0312 l -0.343351,-0.0103 v 1.14939 c 0,1.08957 0.0014,1.14939 0.02671,1.14939 0.05529,0 0.256988,-0.0646 0.376666,-0.12067 0.06829,-0.032 0.176959,-0.0943 0.241477,-0.13845 0.258355,-0.17685 0.595594,-0.55449 0.790932,-0.88569 0.04455,-0.0755 0.08439,-0.13745 0.08854,-0.1376 0.0042,-1.7e-4 0.04046,0.0956 0.08069,0.21271 l 0.07314,0.21299 -0.06845,0.10009 c -0.103158,0.15086 -0.235952,0.31193 -0.253323,0.30725 -0.0085,-0.002 -0.01145,0.002 -0.0066,0.0101 0.01198,0.0194 -0.218098,0.2613 -0.240373,0.25274 -0.0098,-0.004 -0.01773,0.003 -0.01773,0.0144 0,0.0117 0.0053,0.0212 0.0117,0.0212 0.03277,0 0.388467,-0.11624 0.534493,-0.17467 0.09184,-0.0367 0.174617,-0.0668 0.183946,-0.0668 0.0093,0 0.03889,0.0662 0.0657,0.14714 0.02681,0.0809 0.05148,0.15466 0.05484,0.16383 0.0071,0.0195 -0.06642,0.0523 -0.332374,0.14836 -0.350254,0.12648 -0.786788,0.227 -1.187399,0.27342 -0.193856,0.0225 -0.728129,0.0384 -0.905542,0.0269 z m -0.06037,-0.11592 c 0,-0.003 -0.01528,-0.0182 -0.03396,-0.034 l -0.03396,-0.0288 0.02875,0.034 c 0.02702,0.0319 0.03916,0.0408 0.03916,0.0288 z m -0.120739,-0.12074 c 0,-0.003 -0.01528,-0.0182 -0.03396,-0.034 l -0.03396,-0.0287 0.02875,0.034 c 0.02702,0.0319 0.03916,0.0408 0.03916,0.0287 z m -0.120739,-0.12074 c 0,-0.003 -0.01528,-0.0181 -0.03396,-0.034 l -0.03396,-0.0287 0.02875,0.034 c 0.02702,0.0319 0.03916,0.0408 0.03916,0.0287 z m 0.437679,-1.15931 v -1.14942 l -0.36599,0.01 c -0.537192,0.0145 -1.494325,0.0995 -1.530796,0.13599 -0.01243,0.0124 0.11899,0.34512 0.219677,0.55613 0.165469,0.34677 0.326718,0.61108 0.521562,0.85489 0.04204,0.0526 0.07644,0.10151 0.07644,0.10867 0,0.007 0.0085,0.0215 0.01887,0.0319 0.01037,0.0104 0.01887,0.0129 0.01887,0.005 0,-0.007 0.01677,0.002 0.03727,0.0218 0.0205,0.0193 0.03416,0.0401 0.03035,0.0462 -0.0038,0.006 0.0032,0.0196 0.01556,0.0298 0.01236,0.0103 0.02247,0.0137 0.02247,0.008 0,-0.006 0.04245,0.0283 0.09433,0.0764 0.115065,0.1066 0.304685,0.232 0.457787,0.30273 0.107111,0.0495 0.298096,0.10849 0.3572,0.11035 0.02493,10e-4 0.02641,-0.0636 0.02641,-1.1486 z m -0.558417,1.03857 c 0,-0.003 -0.01528,-0.0181 -0.03396,-0.034 l -0.03396,-0.0288 0.02875,0.034 c 0.02702,0.0319 0.03916,0.0408 0.03916,0.0288 z m -0.657162,-0.16458 c -0.334018,-0.34029 -0.635234,-0.81093 -0.862083,-1.34699 -0.06217,-0.14692 -0.152136,-0.38359 -0.178375,-0.46927 -0.0067,-0.0218 -0.165532,0.004 -0.573781,0.0919 -0.413782,0.0894 -0.81168,0.19234 -0.817336,0.21136 -0.0065,0.0219 0.263649,0.31303 0.455844,0.49119 0.446396,0.41379 1.050268,0.7864 1.614158,0.99598 0.141718,0.0527 0.441445,0.14847 0.468281,0.14966 0.0085,3.1e-4 -0.03948,-0.0553 -0.106708,-0.12382 z m -1.938725,-2.01715 c 0.178468,-0.0407 0.424662,-0.0926 0.547099,-0.11548 0.12704,-0.0237 0.222612,-0.0487 0.222612,-0.0582 0,-0.009 -0.02315,-0.10828 -0.05144,-0.22028 -0.142794,-0.56527 -0.236346,-1.2211 -0.259995,-1.82266 l -0.01022,-0.25998 h -1.04656 c -0.827255,0 -1.046533,0.004 -1.046431,0.0189 1.14e-4,0.0191 0.02503,0.30881 0.03729,0.4339 0.01176,0.12002 0.09731,0.52655 0.150616,0.71573 0.133327,0.47317 0.329258,0.90559 0.60914,1.34438 0.10953,0.17173 0.07866,0.16237 0.316155,0.0958 0.11399,-0.032 0.353272,-0.0914 0.53174,-0.13205 z m 1.483171,-0.25769 c 0.44855,-0.0548 1.191225,-0.10598 1.537617,-0.10598 h 0.133722 l -0.0039,-1.05269 -0.0039,-1.05269 -1.154566,-0.004 c -0.635011,-0.002 -1.161357,-10e-4 -1.169658,0.002 -0.01713,0.007 -0.0036,0.427 0.02247,0.6963 0.04909,0.50796 0.150761,1.06083 0.281139,1.52873 0.0083,0.0297 0.01689,0.0334 0.06088,0.0265 0.02818,-0.004 0.161452,-0.0216 0.29615,-0.0381 z m 6.774276,-1.32469 c 0.01878,-0.0239 0.01824,-0.0245 -0.0057,-0.005 -0.01453,0.0113 -0.02641,0.0233 -0.02641,0.0264 0,0.0124 0.0124,0.004 0.03211,-0.0207 z m -9.887421,-0.43205 c 0,-0.003 -0.01188,-0.015 -0.02641,-0.0264 -0.02394,-0.0188 -0.02447,-0.0182 -0.0057,0.005 0.01972,0.0251 0.03211,0.0331 0.03211,0.0207 z m -0.09055,-0.0896 c 0,-0.002 -0.02207,-0.0247 -0.04905,-0.0491 l -0.04905,-0.0443 0.04433,0.0491 c 0.04132,0.0457 0.05377,0.056 0.05377,0.0443 z m -0.120739,-0.12074 c 0,-0.002 -0.02207,-0.0247 -0.04905,-0.0491 l -0.04905,-0.0443 0.04432,0.0491 c 0.04132,0.0457 0.05377,0.056 0.05377,0.0443 z m 5.312512,-0.33252 c 0,-0.003 -0.01528,-0.0182 -0.03396,-0.034 l -0.03396,-0.0287 0.02875,0.0339 c 0.02702,0.0319 0.03916,0.0408 0.03916,0.0288 z m -0.120738,-0.12074 c 0,-0.003 -0.01528,-0.0182 -0.03396,-0.034 l -0.03396,-0.0288 0.02875,0.034 c 0.02702,0.0319 0.03917,0.0408 0.03917,0.0288 z m -0.120739,-0.12074 c 0,-0.003 -0.01528,-0.0182 -0.03396,-0.034 l -0.03396,-0.0287 0.02875,0.034 c 0.02702,0.0319 0.03916,0.0408 0.03916,0.0287 z m 5.403065,-0.0151 c 0,-0.003 -0.01528,-0.0182 -0.03396,-0.034 l -0.03396,-0.0288 0.02875,0.034 c 0.02702,0.0319 0.03916,0.0408 0.03916,0.0288 z m -8.177151,-0.26645 c 0.01975,-0.47057 0.07853,-0.97649 0.163942,-1.41114 0.04121,-0.20972 0.163086,-0.70882 0.186373,-0.76323 0.0085,-0.0199 -0.0205,-0.0291 -0.182858,-0.058 -0.262805,-0.0466 -0.743601,-0.15331 -1.049468,-0.23284 l -0.25277,-0.0657 -0.03518,0.0468 c -0.115935,0.15399 -0.284304,0.43563 -0.406662,0.68024 -0.290029,0.57981 -0.457717,1.18338 -0.509222,1.83284 -0.01283,0.16171 -0.01217,0.2049 0.0032,0.21441 0.0106,0.007 0.481179,0.0105 1.045728,0.009 l 1.026452,-0.003 z m 2.674751,0.24741 c 0.02147,-0.008 0.02387,-0.12124 0.02387,-1.12286 v -1.1137 l -0.184882,-0.008 c -0.797768,-0.0356 -1.095809,-0.0578 -1.556849,-0.11585 -0.132023,-0.0166 -0.242215,-0.028 -0.244871,-0.0254 -0.0095,0.009 -0.112642,0.39847 -0.148898,0.5615 -0.09157,0.41172 -0.159123,0.87602 -0.18774,1.29039 -0.01258,0.18225 -0.02265,0.48917 -0.01745,0.53201 0.0016,0.0134 2.281985,0.0155 2.316818,0.002 z m 2.713886,-0.002 c 0.0031,-0.006 6.64e-4,-0.1339 -0.0055,-0.28332 -0.01958,-0.4724 -0.07682,-0.93455 -0.173217,-1.3984 -0.04942,-0.2378 -0.16469,-0.68963 -0.17979,-0.70473 -0.0039,-0.004 -0.15816,0.0109 -0.342937,0.0329 -0.457247,0.0543 -0.824828,0.0835 -1.264137,0.10058 -0.20337,0.008 -0.371461,0.0146 -0.373536,0.0148 -0.0079,10e-4 -0.0034,2.22947 0.0046,2.23739 0.01307,0.0131 2.328096,0.0138 2.334554,10e-4 z m 2.44855,-0.004 c 0.01495,-0.0242 -0.02143,-0.416 -0.05948,-0.64052 -0.129638,-0.76526 -0.424906,-1.48007 -0.855599,-2.07131 l -0.05652,-0.0776 -0.132796,0.0364 c -0.07304,0.02 -0.190525,0.0524 -0.261082,0.0721 -0.112421,0.0313 -0.478414,0.11073 -0.935727,0.20314 -0.07886,0.0159 -0.142589,0.0348 -0.141626,0.0419 9.66e-4,0.007 0.02288,0.0911 0.0487,0.18651 0.174874,0.64639 0.303403,1.54007 0.304065,2.11419 5.7e-5,0.0712 0.0048,0.13415 0.01039,0.13978 0.01577,0.0158 2.069884,0.0112 2.079663,-0.005 z m 0.128671,-0.18743 c 0,-0.003 -0.01188,-0.015 -0.02641,-0.0264 -0.02394,-0.0188 -0.02447,-0.0182 -0.0057,0.005 0.01972,0.0251 0.03211,0.0331 0.03211,0.0207 z m -5.267234,-3.50327 c 0,-0.90451 -0.0035,-1.0942 -0.02023,-1.0942 -0.06045,0 -0.276482,0.0696 -0.394816,0.12715 -0.460638,0.22411 -0.893777,0.71615 -1.223302,1.38963 -0.122654,0.25068 -0.235615,0.52462 -0.22145,0.53703 0.01076,0.009 0.460926,0.058 0.833511,0.0899 0.212099,0.0182 0.638346,0.0389 0.871585,0.0423 l 0.154696,0.002 z m 1.109288,1.06269 c 0.473313,-0.0286 1.094196,-0.0986 1.094196,-0.1233 0,-0.0312 -0.113023,-0.29833 -0.212279,-0.50172 -0.317954,-0.65153 -0.714164,-1.12076 -1.158347,-1.37183 -0.103642,-0.0586 -0.320639,-0.1377 -0.421591,-0.15372 l -0.06414,-0.0101 v 1.09796 1.09796 l 0.252797,-0.01 c 0.139038,-0.005 0.368253,-0.0168 0.509367,-0.0253 z m -3.252403,-0.37905 c 0.09665,-0.24852 0.288403,-0.63708 0.415572,-0.84211 0.132421,-0.2135 0.343733,-0.48768 0.49727,-0.64522 0.07484,-0.0768 0.131377,-0.13962 0.125634,-0.1396 -0.03251,5e-5 -0.385776,0.11628 -0.544203,0.17904 -0.548401,0.21725 -1.063698,0.53627 -1.513008,0.9367 -0.128006,0.11407 -0.414937,0.41534 -0.410063,0.43054 0.01078,0.0336 1.144509,0.28899 1.300512,0.29295 0.04447,0.001 0.04675,-0.003 0.128286,-0.2123 z m 5.161587,0.12911 c 0.348311,-0.0687 0.874166,-0.19475 0.894033,-0.21432 0.02502,-0.0246 -0.487888,-0.512 -0.735562,-0.69893 -0.456597,-0.34459 -1.012511,-0.62993 -1.537049,-0.78892 -0.09773,-0.0296 -0.182387,-0.0539 -0.188131,-0.0539 -0.0057,-6e-5 0.05068,0.0631 0.125389,0.14035 0.366623,0.37914 0.685941,0.90195 0.923722,1.51238 0.0291,0.0747 0.05912,0.14752 0.06671,0.16181 0.01594,0.03 -0.02254,0.035 0.450886,-0.0584 z m -2.354409,-1.88246 c 0,-0.003 -0.01188,-0.015 -0.02641,-0.0264 -0.02394,-0.0188 -0.02447,-0.0183 -0.0057,0.005 0.01972,0.0251 0.03211,0.0331 0.03211,0.0207 z m -0.520686,-0.0547 c 0.01502,-0.0166 0.02392,-0.0302 0.01977,-0.0302 -0.0042,0 -0.01984,0.0136 -0.03486,0.0302 -0.01502,0.0166 -0.02392,0.0302 -0.01977,0.0302 0.0042,0 0.01984,-0.0136 0.03486,-0.0302 z m 0.120739,-0.12073 c 0.01502,-0.0166 0.02392,-0.0302 0.01977,-0.0302 -0.0042,0 -0.01984,0.0136 -0.03486,0.0302 -0.01502,0.0166 -0.02392,0.0302 -0.01977,0.0302 0.0042,0 0.01984,-0.0136 0.03486,-0.0302 z"
       id="path3491" /></g></svg>
